<svg width="125" height="34" viewBox="0 0 125 34" fill="none" xmlns="http://www.w3.org/2000/svg">
<path d="M18.1972 8.224H26.6932C28.3092 8.224 29.5812 8.624 30.5092 9.424C31.4532 10.224 31.9252 11.368 31.9252 12.856C31.9252 13.56 31.7652 14.216 31.4452 14.824C31.1252 15.432 30.6692 15.912 30.0772 16.264C30.8932 16.584 31.4932 17.048 31.8772 17.656C32.2612 18.248 32.4532 19.024 32.4532 19.984C32.4532 21.008 32.2132 21.904 31.7332 22.672C31.2532 23.424 30.6052 24 29.7892 24.4C28.9892 24.8 28.0932 25 27.1012 25H18.1972V8.224ZM25.7572 14.872C27.0052 14.872 27.6292 14.288 27.6292 13.12C27.6292 12.464 27.4692 12.016 27.1492 11.776C26.8292 11.52 26.3412 11.392 25.6852 11.392H22.4452V14.872H25.7572ZM26.0212 21.832C26.7412 21.832 27.2772 21.696 27.6292 21.424C27.9812 21.152 28.1572 20.672 28.1572 19.984C28.1572 19.296 27.9732 18.8 27.6052 18.496C27.2372 18.176 26.6772 18.016 25.9252 18.016H22.4452V21.832H26.0212Z" fill="white"/>
<path d="M18.1972 8.224H26.6932C28.3092 8.224 29.5812 8.624 30.5092 9.424C31.4532 10.224 31.9252 11.368 31.9252 12.856C31.9252 13.56 31.7652 14.216 31.4452 14.824C31.1252 15.432 30.6692 15.912 30.0772 16.264C30.8932 16.584 31.4932 17.048 31.8772 17.656C32.2612 18.248 32.4532 19.024 32.4532 19.984C32.4532 21.008 32.2132 21.904 31.7332 22.672C31.2532 23.424 30.6052 24 29.7892 24.4C28.9892 24.8 28.0932 25 27.1012 25H18.1972V8.224ZM25.7572 14.872C27.0052 14.872 27.6292 14.288 27.6292 13.12C27.6292 12.464 27.4692 12.016 27.1492 11.776C26.8292 11.52 26.3412 11.392 25.6852 11.392H22.4452V14.872H25.7572ZM26.0212 21.832C26.7412 21.832 27.2772 21.696 27.6292 21.424C27.9812 21.152 28.1572 20.672 28.1572 19.984C28.1572 19.296 27.9732 18.8 27.6052 18.496C27.2372 18.176 26.6772 18.016 25.9252 18.016H22.4452V21.832H26.0212Z" fill="white"/>
<path d="M38.7667 25.36C37.1827 25.36 35.9907 24.92 35.1907 24.04C34.4067 23.16 34.0147 22 34.0147 20.56V13.48H38.2387V20.08C38.2387 21.408 38.8387 22.072 40.0387 22.072C40.5827 22.072 41.0787 21.944 41.5267 21.688C41.9747 21.432 42.3427 21.056 42.6307 20.56V13.48H46.8547V25H42.7747V23.752C42.2787 24.28 41.6787 24.68 40.9747 24.952C40.2707 25.224 39.5347 25.36 38.7667 25.36ZM54.6575 25.36C53.4575 25.36 52.3935 25.112 51.4655 24.616C50.5375 24.104 49.8175 23.392 49.3055 22.48C48.7935 21.552 48.5375 20.48 48.5375 19.264C48.5375 18.064 48.7935 17 49.3055 16.072C49.8175 15.128 50.5295 14.4 51.4415 13.888C52.3695 13.376 53.4415 13.12 54.6575 13.12C55.4575 13.12 56.1935 13.232 56.8655 13.456C57.5375 13.68 58.1135 14 58.5935 14.416V7.264H62.8175V25H58.7375V23.848C57.6655 24.856 56.3055 25.36 54.6575 25.36ZM55.7615 22.096C56.4015 22.096 56.9775 21.936 57.4895 21.616C58.0015 21.28 58.3695 20.832 58.5935 20.272V18.232C58.3695 17.672 58.0015 17.232 57.4895 16.912C56.9775 16.576 56.4015 16.408 55.7615 16.408C54.8975 16.408 54.2015 16.664 53.6735 17.176C53.1455 17.688 52.8815 18.384 52.8815 19.264C52.8815 20.144 53.1455 20.84 53.6735 21.352C54.2015 21.848 54.8975 22.096 55.7615 22.096ZM71.2424 30.52C70.4744 30.52 69.6984 30.448 68.9144 30.304C68.1464 30.16 67.4824 29.968 66.9224 29.728V26.8C68.1864 27.344 69.6264 27.616 71.2424 27.616C72.4104 27.616 73.2504 27.376 73.7624 26.896C74.2904 26.416 74.5544 25.712 74.5544 24.784V24.088C74.0904 24.488 73.5144 24.8 72.8264 25.024C72.1544 25.248 71.4344 25.36 70.6664 25.36C69.4504 25.36 68.3784 25.104 67.4504 24.592C66.5224 24.08 65.7944 23.36 65.2664 22.432C64.7544 21.504 64.4984 20.44 64.4984 19.24C64.4984 18.024 64.7544 16.952 65.2664 16.024C65.7784 15.096 66.4984 14.384 67.4264 13.888C68.3544 13.376 69.4184 13.12 70.6184 13.12C72.2664 13.12 73.6264 13.624 74.6984 14.632V13.48H78.7784V24.208C78.7784 26.208 78.1624 27.76 76.9304 28.864C75.7144 29.968 73.8184 30.52 71.2424 30.52ZM71.7224 22.096C72.3784 22.096 72.9624 21.928 73.4744 21.592C73.9864 21.256 74.3464 20.808 74.5544 20.248V18.232C74.3304 17.672 73.9624 17.232 73.4504 16.912C72.9384 16.576 72.3624 16.408 71.7224 16.408C70.8584 16.408 70.1624 16.664 69.6344 17.176C69.1064 17.672 68.8424 18.352 68.8424 19.216C68.8424 20.096 69.1064 20.8 69.6344 21.328C70.1624 21.84 70.8584 22.096 71.7224 22.096ZM87.7074 25.36C85.4514 25.36 83.6754 24.832 82.3794 23.776C81.0994 22.72 80.4594 21.224 80.4594 19.288C80.4594 17.384 81.0274 15.88 82.1634 14.776C83.3154 13.672 84.9714 13.12 87.1314 13.12C88.5074 13.12 89.6834 13.384 90.6594 13.912C91.6514 14.424 92.3954 15.136 92.8914 16.048C93.4034 16.944 93.6594 17.96 93.6594 19.096V20.656H84.4674C84.6274 21.296 85.0274 21.76 85.6674 22.048C86.3074 22.336 87.1794 22.48 88.2834 22.48C89.0354 22.48 89.8034 22.416 90.5874 22.288C91.3874 22.16 92.0754 21.984 92.6514 21.76V24.544C92.0594 24.784 91.3154 24.976 90.4194 25.12C89.5394 25.28 88.6354 25.36 87.7074 25.36ZM89.6754 18.016C89.6114 17.392 89.3554 16.904 88.9074 16.552C88.4594 16.2 87.8434 16.024 87.0594 16.024C86.2914 16.024 85.6834 16.208 85.2354 16.576C84.7874 16.928 84.5314 17.408 84.4674 18.016H89.6754ZM100.322 25.36C98.898 25.36 97.818 24.968 97.082 24.184C96.362 23.384 96.002 22.296 96.002 20.92V16.408H94.37V13.48H96.002V10.024H100.226V13.48H102.866V16.408H100.226V20.344C100.226 20.968 100.338 21.416 100.562 21.688C100.802 21.96 101.218 22.096 101.81 22.096C102.338 22.096 102.866 21.952 103.394 21.664V24.808C102.978 25 102.53 25.136 102.05 25.216C101.586 25.312 101.01 25.36 100.322 25.36ZM104.588 7.264H108.812V25H104.588V7.264ZM114.515 29.752C114.003 29.752 113.467 29.712 112.907 29.632C112.347 29.568 111.931 29.472 111.659 29.344V26.2C112.123 26.392 112.651 26.488 113.243 26.488C113.771 26.488 114.179 26.368 114.467 26.128C114.771 25.904 115.011 25.544 115.187 25.048L115.475 24.28L110.483 13.48H114.707L117.707 20.968L120.539 13.48H124.763L120.011 25.528C119.451 26.968 118.731 28.032 117.851 28.72C116.987 29.408 115.875 29.752 114.515 29.752Z" fill="white"/>
<rect x="8" y="9" width="7" height="7" rx="1" fill="#73EC8B"/>
<rect x="8" y="17" width="7" height="7" rx="1" fill="#73EC8B"/>
<rect y="17" width="7" height="7" rx="1" fill="#73EC8B"/>
<rect x="0.75" y="9.75" width="5.5" height="5.5" rx="0.75" stroke="#73EC8B" stroke-opacity="0.8" stroke-width="1.5"/>
</svg>
